<svg width="208" height="49" viewBox="0 0 208 49" fill="none" xmlns="http://www.w3.org/2000/svg">
<g clip-path="url(#clip0_216_2927)">
<g clip-path="url(#clip1_216_2927)">
<path d="M42.2066 33.5733V47.347H33.1485C17.094 47.347 4.84033 35.0714 4.84033 18.9899H18.5896C18.5896 27.0306 25.1212 33.5733 33.1485 33.5733H42.2066ZM18.5896 5.21614V18.9899H42.2109V5.21614H18.5896ZM7.93815 1.02832C3.91607 1.02832 0.658691 4.29118 0.658691 8.32004C0.658691 12.3489 3.91607 15.6118 7.93815 15.6118C11.9602 15.6118 15.2176 12.3489 15.2176 8.32004C15.2176 4.29118 11.9602 1.02832 7.93815 1.02832Z" fill="url(#paint0_linear_216_2927)"/>
<path d="M193.087 34.6785V16.6855H200.175C202.338 16.6855 203.919 17.1217 204.919 17.9941C205.918 18.8665 206.418 20.0751 206.418 21.62C206.418 22.5651 206.145 23.4102 205.6 24.1554C205.055 24.8823 204.255 25.3458 203.201 25.5457V25.573C204.364 25.7547 205.264 26.2364 205.9 27.0179C206.554 27.7812 206.882 28.6718 206.882 29.6895C206.882 31.2344 206.318 32.4521 205.191 33.3427C204.064 34.2332 202.429 34.6785 200.284 34.6785H193.087ZM195.949 32.2522H200.42C201.565 32.2522 202.42 32.0159 202.983 31.5434C203.565 31.0708 203.855 30.4075 203.855 29.5532C203.855 28.699 203.565 28.0357 202.983 27.5631C202.42 27.0906 201.565 26.8543 200.42 26.8543H195.949V32.2522ZM195.949 24.428H199.957C202.247 24.428 203.392 23.5465 203.392 21.7836C203.392 20.0206 202.247 19.1391 199.957 19.1391H195.949V24.428Z" fill="#CCCCCC"/>
<path d="M188.859 34.6785H185.778L184.061 29.9622H176.509L174.792 34.6785H171.793L178.581 16.6855H182.071L188.859 34.6785ZM177.327 27.5904H183.243L180.299 19.1937L177.327 27.5904Z" fill="#CCCCCC"/>
<path d="M159.154 32.1704H169.078V34.6785H156.237V16.6855H159.154V32.1704Z" fill="#CCCCCC"/>
<path d="M151.38 16.6855V19.1937H145.219V34.6785H142.302V19.1937H136.141V16.6855H151.38Z" fill="white"/>
<path d="M125.939 16.4131C127.557 16.4131 128.956 16.7221 130.138 17.34C131.319 17.9398 132.319 18.8303 133.137 20.0117L131.174 21.8928C130.483 20.8386 129.702 20.0844 128.829 19.63C127.975 19.1575 126.957 18.9212 125.776 18.9212C124.903 18.9212 124.186 19.0393 123.622 19.2756C123.059 19.5119 122.641 19.8299 122.368 20.2298C122.114 20.6114 121.986 21.0476 121.986 21.5384C121.986 22.1018 122.177 22.5925 122.559 23.0105C122.959 23.4285 123.695 23.7557 124.767 23.9919L128.42 24.8098C130.165 25.1915 131.401 25.7731 132.128 26.5546C132.855 27.3361 133.218 28.3266 133.218 29.5261C133.218 30.6348 132.918 31.598 132.319 32.4159C131.719 33.2338 130.883 33.8608 129.811 34.297C128.756 34.7332 127.511 34.9513 126.076 34.9513C124.803 34.9513 123.658 34.7877 122.641 34.4606C121.623 34.1334 120.732 33.6881 119.969 33.1247C119.206 32.5613 118.579 31.9161 118.088 31.1891L120.105 29.1717C120.487 29.8078 120.969 30.3803 121.55 30.8892C122.132 31.38 122.804 31.7616 123.568 32.0342C124.349 32.3069 125.212 32.4432 126.157 32.4432C126.993 32.4432 127.711 32.3432 128.311 32.1433C128.929 31.9434 129.393 31.6526 129.702 31.2709C130.029 30.8711 130.192 30.3985 130.192 29.8533C130.192 29.3262 130.01 28.8628 129.647 28.4629C129.302 28.0631 128.647 27.7541 127.684 27.536L123.731 26.6364C122.641 26.4001 121.741 26.0639 121.032 25.6277C120.323 25.1915 119.796 24.6644 119.451 24.0465C119.106 23.4103 118.933 22.7015 118.933 21.92C118.933 20.9022 119.206 19.9844 119.751 19.1666C120.314 18.3305 121.123 17.6671 122.177 17.1764C123.231 16.6675 124.485 16.4131 125.939 16.4131Z" fill="white"/>
<path d="M113.454 16.6855V27.7812C113.454 30.1621 112.827 31.9523 111.573 33.1518C110.319 34.3514 108.492 34.9511 106.093 34.9511C103.731 34.9511 101.913 34.3514 100.641 33.1518C99.3868 31.9523 98.7598 30.1621 98.7598 27.7812V16.6855H101.677V27.4268C101.677 29.117 102.04 30.3711 102.767 31.189C103.494 32.0068 104.603 32.4158 106.093 32.4158C107.602 32.4158 108.72 32.0068 109.446 31.189C110.173 30.3711 110.537 29.117 110.537 27.4268V16.6855H113.454Z" fill="white"/>
<path d="M86.7681 16.6855C88.6946 16.6855 90.2213 17.1672 91.3481 18.1304C92.4931 19.0937 93.0656 20.3932 93.0656 22.0289C93.0656 23.7192 92.4931 25.0277 91.3481 25.9546C90.2213 26.8634 88.6946 27.3177 86.7681 27.3177L86.4954 27.4813H82.3243V34.6785H79.4346V16.6855H86.7681ZM86.55 25.055C87.7313 25.055 88.6037 24.8187 89.1671 24.3462C89.7487 23.8555 90.0395 23.1103 90.0395 22.1107C90.0395 21.1293 89.7487 20.3932 89.1671 19.9025C88.6037 19.4118 87.7313 19.1664 86.55 19.1664H82.3243V25.055H86.55ZM88.2675 25.6548L94.1288 34.6785H90.7756L85.7594 26.7998L88.2675 25.6548Z" fill="white"/>
<path d="M74.5779 16.6855V19.1937H68.4166V34.6785H65.4996V19.1937H59.3384V16.6855H74.5779Z" fill="white"/>
</g>
</g>
<defs>
<linearGradient id="paint0_linear_216_2927" x1="3.19006" y1="5.22479" x2="41.5521" y2="48.0557" gradientUnits="userSpaceOnUse">
<stop stop-color="#8D5CF4"/>
<stop offset="1" stop-color="#416AFB"/>
<stop offset="1" stop-color="#7391FC"/>
</linearGradient>
<clipPath id="clip0_216_2927">
<rect width="207.652" height="48" fill="white" transform="translate(0 0.5)"/>
</clipPath>
<clipPath id="clip1_216_2927">
<rect width="206.357" height="46.6177" fill="white" transform="translate(0.658691 1.02832)"/>
</clipPath>
</defs>
</svg>
